{
  "accessors": [
    {
      "bufferView": 2,
      "componentType": 5126,
      "count": 27643,
      "max": [
        1.0059499740600586,
        1.021981954574585,
        2.9136428833007813
      ],
      "min": [
        -1.0059499740600586,
        -0.948839008808136,
        -0.009571000002324581
      ],
      "type": "VEC3"
    },
    {
      "bufferView": 2,
      "byteOffset": 331716,
      "componentType": 5126,
      "count": 27643,
      "max": [
        0.9999542236328125,
        0.9999942779541016,
        0.9997331500053406
      ],
      "min": [
        -0.9999542236328125,
        -0.9999966621398926,
        -0.9999711513519287
      ],
      "type": "VEC3"
    },
    {
      "bufferView": 1,
      "componentType": 5126,
      "count": 27643,
      "max": [
        0.9803640246391296,
        0.9561409950256348
      ],
      "min": [
        0.02592100016772747,
        0.04069799929857254
      ],
      "type": "VEC2"
    },
    {
      "bufferView": 0,
      "componentType": 5125,
      "count": 151866,
      "type": "SCALAR"
    }
  ],
  "asset": {
    "extras": {
      "author": "Shiju (https://sketchfab.com/XenoFu)",
      "license": "CC-BY-4.0 (http://creativecommons.org/licenses/by/4.0/)",
      "source": "https://sketchfab.com/3d-models/eggdog-0baf30127d174217a87d8f8abf20f36a",
      "title": "Eggdog"
    },
    "generator": "Sketchfab-12.68.0",
    "version": "2.0"
  },
  "bufferViews": [
    {
      "buffer": 0,
      "byteLength": 607464,
      "name": "floatBufferViews",
      "target": 34963
    },
    {
      "buffer": 0,
      "byteLength": 221144,
      "byteOffset": 607464,
      "byteStride": 8,
      "name": "floatBufferViews",
      "target": 34962
    },
    {
      "buffer": 0,
      "byteLength": 663432,
      "byteOffset": 828608,
      "byteStride": 12,
      "name": "floatBufferViews",
      "target": 34962
    }
  ],
  "buffers": [
    {
      "byteLength": 1492040,
      "uri": "scene.bin"
    }
  ],
  "images": [
    {
      "uri": "textures/null_baseColor.png"
    }
  ],
  "materials": [
    {
      "doubleSided": true,
      "name": "null",
      "pbrMetallicRoughness": {
        "baseColorTexture": {
          "index": 0
        },
        "metallicFactor": 0.0,
        "roughnessFactor": 0.8434915419926713
      }
    }
  ],
  "meshes": [
    {
      "name": "Object_0",
      "primitives": [
        {
          "attributes": {
            "NORMAL": 1,
            "POSITION": 0,
            "TEXCOORD_0": 2
          },
          "indices": 3,
          "material": 0,
          "mode": 4
        }
      ]
    }
  ],
  "nodes": [
    {
      "children": [
        1
      ],
      "matrix": [
        1.0,
        0.0,
        0.0,
        0.0,
        0.0,
        2.220446049250313e-16,
        -1.0,
        0.0,
        0.0,
        1.0,
        2.220446049250313e-16,
        0.0,
        0.0,
        0.0,
        0.0,
        1.0
      ],
      "name": "Sketchfab_model"
    },
    {
      "children": [
        2
      ],
      "name": "Eggdog.obj.cleaner.materialmerger.gles"
    },
    {
      "mesh": 0,
      "name": "Object_2"
    }
  ],
  "samplers": [
    {
      "magFilter": 9729,
      "minFilter": 9987,
      "wrapS": 10497,
      "wrapT": 10497
    }
  ],
  "scene": 0,
  "scenes": [
    {
      "name": "Sketchfab_Scene",
      "nodes": [
        0
      ]
    }
  ],
  "textures": [
    {
      "sampler": 0,
      "source": 0
    }
  ]
}
